<?xml version="1.0" standalone="no"?>
<!DOCTYPE svg PUBLIC "-//W3C//DTD SVG 20010904//EN"
 "http://www.w3.org/TR/2001/REC-SVG-20010904/DTD/svg10.dtd">
<svg version="1.0" xmlns="http://www.w3.org/2000/svg"
 width="1500.000000pt" height="1500.000000pt" viewBox="0 0 1500.000000 1500.000000"
 preserveAspectRatio="xMidYMid meet">
<metadata>
Created by potrace 1.14, written by Peter Selinger 2001-2017
</metadata>
<g transform="translate(0.000000,1500.000000) scale(0.100000,-0.100000)"
fill="#000000" stroke="none">
<path d="M12316 11069 c-99 -24 -234 -113 -295 -193 -38 -51 -61 -108 -61
-157 0 -40 6 -53 56 -115 167 -207 289 -503 323 -779 53 -438 -80 -978 -338
-1368 -138 -207 -239 -319 -570 -630 -669 -629 -885 -855 -1113 -1167 -40 -55
-74 -97 -76 -96 -2 2 2 66 7 142 6 77 25 362 41 634 87 1446 164 2041 336
2612 34 110 35 118 20 146 -66 127 -396 163 -603 66 -42 -20 -89 -58 -173
-142 -301 -298 -569 -444 -1235 -672 -278 -96 -452 -163 -568 -221 -374 -187
-567 -463 -567 -810 0 -327 208 -603 535 -711 183 -61 385 -76 465 -35 79 39
140 176 127 284 -7 65 -29 90 -95 109 -75 22 -105 37 -153 81 -64 58 -82 103
-87 215 -10 226 68 368 275 501 87 57 161 93 435 218 383 173 572 287 732 439
l93 90 -19 -93 c-32 -157 -87 -493 -113 -697 -50 -397 -76 -723 -105 -1365
-36 -785 -56 -1046 -116 -1529 -41 -321 -40 -336 18 -402 68 -77 172 -108 335
-102 203 9 267 47 362 217 272 487 604 850 1431 1561 459 396 649 578 809 779
330 416 542 902 617 1416 24 163 24 485 0 650 -55 388 -194 713 -422 985 -111
134 -123 142 -201 146 -37 2 -85 -1 -107 -7z"/>
<path d="M5540 10180 c-559 -123 -1019 -702 -1581 -1986 -45 -104 -126 -292
-179 -417 l-96 -228 -264 -3 c-412 -5 -673 -58 -1001 -202 -468 -206 -781
-584 -855 -1032 -21 -130 -14 -337 16 -440 55 -195 183 -354 359 -446 316
-165 829 -162 1176 8 415 204 711 592 1053 1381 61 140 72 160 94 163 14 2
130 -9 259 -23 344 -38 519 -55 565 -55 l41 0 -79 -317 c-134 -545 -228 -983
-228 -1072 0 -94 159 -161 385 -161 182 0 315 39 380 111 20 22 35 50 35 63 0
69 78 436 214 1012 48 198 86 363 86 366 0 3 30 9 68 13 388 40 734 154 992
326 98 66 292 244 316 291 21 40 17 96 -10 154 -30 64 -67 94 -117 94 -31 0
-49 -9 -99 -52 -128 -110 -159 -130 -295 -198 -159 -79 -310 -127 -505 -158
-188 -31 -270 -37 -270 -21 0 8 20 92 45 189 244 964 379 1864 324 2166 -34
186 -140 334 -299 418 -146 77 -341 97 -530 56z m156 -541 c31 -29 48 -106 39
-177 -29 -244 -212 -1027 -410 -1757 -40 -148 -78 -289 -85 -313 l-11 -43 -47
6 c-444 50 -738 88 -747 97 -7 6 186 518 299 797 217 533 398 888 589 1156
159 224 294 308 373 234z m-2237 -2651 c-131 -334 -294 -673 -399 -831 -139
-210 -294 -328 -451 -343 -217 -21 -335 136 -300 399 40 299 228 558 507 696
157 78 376 129 561 130 l103 1 -21 -52z"/>
</g>
</svg>
